<svg xmlns="http://www.w3.org/2000/svg" viewBox="0 0 512 512">
  <defs>
    <linearGradient id="g0" x1="0" y1="0" x2="0" y2="1"><stop offset="0" stop-color="#ff5c9e"/><stop offset="1" stop-color="#d13272"/></linearGradient>
    <linearGradient id="g1" x1="0" y1="0" x2="0" y2="1"><stop offset="0" stop-color="#ca68ff"/><stop offset="1" stop-color="#9d3ed1"/></linearGradient>
    <linearGradient id="g2" x1="0" y1="0" x2="0" y2="1"><stop offset="0" stop-color="#5c90ff"/><stop offset="1" stop-color="#3265d1"/></linearGradient>
    <linearGradient id="g3" x1="0" y1="0" x2="0" y2="1"><stop offset="0" stop-color="#38c2d2"/><stop offset="1" stop-color="#0f95a5"/></linearGradient>
    <linearGradient id="g4" x1="0" y1="0" x2="0" y2="1"><stop offset="0" stop-color="#54cd82"/><stop offset="1" stop-color="#2aa157"/></linearGradient>
    <linearGradient id="g5" x1="0" y1="0" x2="0" y2="1"><stop offset="0" stop-color="#ffbd5c"/><stop offset="1" stop-color="#d19032"/></linearGradient>
    <radialGradient id="hole" cx="0.5" cy="0.42" r="0.65">
      <stop offset="0" stop-color="#17171c"/>
      <stop offset="1" stop-color="#050506"/>
    </radialGradient>
  </defs>
  <rect width="512" height="512" rx="96" fill="#0b0b0d"/>
  <circle cx="256" cy="256" r="182" fill="#141418"/>
  <g>
    <path d="M 267.41 174.8 L 332.03 225.28 L 431.04 237.6 A 176 176 0 0 0 327.59 95.22 Z" fill="url(#g0)"/>
    <path d="M 332.03 225.28 L 320.62 306.48 L 359.45 398.39 A 176 176 0 0 0 431.04 237.6 Z" fill="url(#g1)"/>
    <path d="M 320.62 306.48 L 244.59 337.2 L 184.41 416.78 A 176 176 0 0 0 359.45 398.39 Z" fill="url(#g2)"/>
    <path d="M 244.59 337.2 L 179.97 286.72 L 80.96 274.4 A 176 176 0 0 0 184.41 416.78 Z" fill="url(#g3)"/>
    <path d="M 179.97 286.72 L 191.38 205.52 L 152.55 113.61 A 176 176 0 0 0 80.96 274.4 Z" fill="url(#g4)"/>
    <path d="M 191.38 205.52 L 267.41 174.8 L 327.59 95.22 A 176 176 0 0 0 152.55 113.61 Z" fill="url(#g5)"/>
  </g>
  <!-- aperture opening -->
  <polygon points="267.41,174.8 332.03,225.28 320.62,306.48 244.59,337.2 179.97,286.72 191.38,205.52" fill="url(#hole)"/>
  <!-- faint catch-light on the opening rim, upper-left -->
  <polygon points="267.41,174.8 332.03,225.28 320.62,306.48 244.59,337.2 179.97,286.72 191.38,205.52" fill="none" stroke="#ffffff" stroke-opacity="0.06" stroke-width="2"/>
</svg>
